<?xml version="1.0" encoding="UTF-8" standalone="no"?>
<svg width="215px" height="23px" viewBox="0 0 215 23" version="1.1" xmlns="http://www.w3.org/2000/svg" xmlns:xlink="http://www.w3.org/1999/xlink" xmlns:sketch="http://www.bohemiancoding.com/sketch/ns">
    <title>Slice 1</title>
    <description>Created with Sketch (http://www.bohemiancoding.com/sketch)</description>
    <defs></defs>
    <g id="Page 1" fill="#D8D8D8" fill-rule="evenodd">
        <path d="M15.05,6.28 C14.5899977,5.7199972 14.0250033,5.2900015 13.355,4.99 C12.6849966,4.6899985 11.9100044,4.54 11.03,4.54 C10.1499956,4.54 9.33500375,4.7099983 8.585,5.05 C7.83499625,5.3900017 7.18500275,5.86499695 6.635,6.475 C6.08499725,7.08500305 5.65500155,7.8099958 5.345,8.65 C5.03499845,9.4900042 4.88,10.3999951 4.88,11.38 C4.88,12.380005 5.03499845,13.2949958 5.345,14.125 C5.65500155,14.9550041 6.0799973,15.6749969 6.62,16.285 C7.1600027,16.895003 7.79499635,17.3699983 8.525,17.71 C9.25500365,18.0500017 10.0399958,18.22 10.88,18.22 C11.8400048,18.22 12.6899963,18.020002 13.43,17.62 C14.1700037,17.219998 14.7799976,16.6600036 15.26,15.94 L19.16,18.85 C18.2599955,20.1100063 17.1200069,21.039997 15.74,21.64 C14.3599931,22.240003 12.9400073,22.54 11.48,22.54 C9.8199917,22.54 8.290007,22.2800026 6.89,21.76 C5.489993,21.2399974 4.2800051,20.4950048 3.26,19.525 C2.2399949,18.5549951 1.44500285,17.3800069 0.875,16 C0.30499715,14.6199931 0.02,13.0800085 0.02,11.38 C0.02,9.6799915 0.30499715,8.1400069 0.875,6.76 C1.44500285,5.3799931 2.2399949,4.20500485 3.26,3.235 C4.2800051,2.26499515 5.489993,1.5200026 6.89,1 C8.290007,0.4799974 9.8199917,0.22 11.48,0.22 C12.080003,0.22 12.7049967,0.27499945 13.355,0.385 C14.0050032,0.49500055 14.6449968,0.6699988 15.275,0.91 C15.9050031,1.1500012 16.5099971,1.469998 17.09,1.87 C17.6700029,2.270002 18.1899977,2.7599971 18.65,3.34 Z M20.57,11.38 C20.57,9.6799915 20.8549972,8.1400069 21.425,6.76 C21.9950028,5.3799931 22.7899949,4.20500485 23.81,3.235 C24.8300051,2.26499515 26.039993,1.5200026 27.44,1 C28.840007,0.4799974 30.3699917,0.22 32.03,0.22 C33.6900083,0.22 35.219993,0.4799974 36.62,1 C38.020007,1.5200026 39.2299949,2.26499515 40.25,3.235 C41.2700051,4.20500485 42.0649972,5.3799931 42.635,6.76 C43.2050028,8.1400069 43.49,9.6799915 43.49,11.38 C43.49,13.0800085 43.2050028,14.6199931 42.635,16 C42.0649972,17.3800069 41.2700051,18.5549951 40.25,19.525 C39.2299949,20.4950048 38.020007,21.2399974 36.62,21.76 C35.219993,22.2800026 33.6900083,22.54 32.03,22.54 C30.3699917,22.54 28.840007,22.2800026 27.44,21.76 C26.039993,21.2399974 24.8300051,20.4950048 23.81,19.525 C22.7899949,18.5549951 21.9950028,17.3800069 21.425,16 C20.8549972,14.6199931 20.57,13.0800085 20.57,11.38 Z M25.43,11.38 C25.43,12.380005 25.5849985,13.2949958 25.895,14.125 C26.2050015,14.9550041 26.6499971,15.6749969 27.23,16.285 C27.8100029,16.895003 28.5049959,17.3699983 29.315,17.71 C30.1250041,18.0500017 31.029995,18.22 32.03,18.22 C33.030005,18.22 33.934996,18.0500017 34.745,17.71 C35.5550041,17.3699983 36.2499971,16.895003 36.83,16.285 C37.4100029,15.6749969 37.8549985,14.9550041 38.165,14.125 C38.4750016,13.2949958 38.63,12.380005 38.63,11.38 C38.63,10.3999951 38.4750016,9.4900042 38.165,8.65 C37.8549985,7.8099958 37.4100029,7.08500305 36.83,6.475 C36.2499971,5.86499695 35.5550041,5.3900017 34.745,5.05 C33.934996,4.7099983 33.030005,4.54 32.03,4.54 C31.029995,4.54 30.1250041,4.7099983 29.315,5.05 C28.5049959,5.3900017 27.8100029,5.86499695 27.23,6.475 C26.6499971,7.08500305 26.2050015,7.8099958 25.895,8.65 C25.5849985,9.4900042 25.43,10.3999951 25.43,11.38 Z M46.67,0.76 L53.03,0.76 L62.06,15.52 L62.12,15.52 L62.12,0.76 L66.8,0.76 L66.8,22 L60.68,22 L51.41,6.88 L51.35,6.88 L51.35,22 L46.67,22 Z M84.83,2.44 L81.62,5.95 C81.2399981,5.4699976 80.7250032,5.11500115 80.075,4.885 C79.4249967,4.65499885 78.8100029,4.54 78.23,4.54 C77.8899983,4.54 77.5400018,4.5799996 77.18,4.66 C76.8199982,4.7400004 76.4800016,4.86499915 76.16,5.035 C75.8399984,5.20500085 75.580001,5.4299986 75.38,5.71 C75.179999,5.9900014 75.08,6.329998 75.08,6.73 C75.08,7.3700032 75.3199976,7.8599983 75.8,8.2 C76.2800024,8.5400017 76.8849963,8.8299988 77.615,9.07 C78.3450036,9.3100012 79.1299958,9.5499988 79.97,9.79 C80.8100042,10.0300012 81.5949963,10.3699978 82.325,10.81 C83.0550037,11.2500022 83.6599976,11.8399963 84.14,12.58 C84.6200024,13.3200037 84.86,14.3099938 84.86,15.55 C84.86,16.7300059 84.6400022,17.7599956 84.2,18.64 C83.7599978,19.5200044 83.1650037,20.2499971 82.415,20.83 C81.6649963,21.4100029 80.7950049,21.8399986 79.805,22.12 C78.814995,22.4000014 77.7700055,22.54 76.67,22.54 C75.2899931,22.54 74.0100059,22.3300021 72.83,21.91 C71.6499941,21.4899979 70.5500051,20.8100047 69.53,19.87 L72.86,16.21 C73.3400024,16.8500032 73.9449963,17.3449982 74.675,17.695 C75.4050036,18.0450017 76.1599961,18.22 76.94,18.22 C77.3200019,18.22 77.7049981,18.1750004 78.095,18.085 C78.4850019,17.9949995 78.8349985,17.8600009 79.145,17.68 C79.4550016,17.4999991 79.704999,17.2700014 79.895,16.99 C80.0850009,16.7099986 80.18,16.3800019 80.18,16 C80.18,15.3599968 79.9350024,14.8550018 79.445,14.485 C78.9549975,14.1149981 78.3400037,13.8000013 77.6,13.54 C76.8599963,13.2799987 76.0600043,13.0200013 75.2,12.76 C74.3399957,12.4999987 73.5400037,12.1500022 72.8,11.71 C72.0599963,11.2699978 71.4450025,10.6900036 70.955,9.97 C70.4649975,9.2499964 70.22,8.3000059 70.22,7.12 C70.22,5.9799943 70.4449977,4.9800043 70.895,4.12 C71.3450022,3.2599957 71.9449962,2.5400029 72.695,1.96 C73.4450038,1.3799971 74.3099951,0.94500145 75.29,0.655 C76.2700049,0.36499855 77.2799948,0.22 78.32,0.22 C79.520006,0.22 80.6799944,0.3899983 81.8,0.73 C82.9200056,1.0700017 83.9299955,1.639996 84.83,2.44 Z M88.34,0.76 L96.23,0.76 C97.3300055,0.76 98.3699951,0.859999 99.35,1.06 C100.330005,1.260001 101.184996,1.60499755 101.915,2.095 C102.645004,2.58500245 103.224998,3.24499585 103.655,4.075 C104.085002,4.90500415 104.3,5.9499937 104.3,7.21 C104.3,8.4500062 104.100002,9.4899958 103.7,10.33 C103.299998,11.1700042 102.750003,11.8399975 102.05,12.34 C101.349997,12.8400025 100.520005,13.1949989 99.56,13.405 C98.5999952,13.615001 97.5600056,13.72 96.44,13.72 L93.02,13.72 L93.02,22 L88.34,22 Z M93.02,9.76 L96.14,9.76 C96.5600021,9.76 96.964998,9.7200004 97.355,9.64 C97.7450019,9.5599996 98.0949984,9.42500095 98.405,9.235 C98.7150015,9.04499905 98.964999,8.78500165 99.155,8.455 C99.3450009,8.12499835 99.44,7.7100025 99.44,7.21 C99.44,6.6699973 99.3150012,6.23500165 99.065,5.905 C98.8149988,5.57499835 98.4950019,5.3200009 98.105,5.14 C97.714998,4.9599991 97.2800024,4.84500025 96.8,4.795 C96.3199976,4.74499975 95.8600022,4.72 95.42,4.72 L93.02,4.72 Z M107.18,0.76 L111.86,0.76 L111.86,22 L107.18,22 Z M116.12,0.76 L124.34,0.76 C125.420005,0.76 126.444995,0.86499895 127.415,1.075 C128.385005,1.28500105 129.234996,1.63499755 129.965,2.125 C130.695004,2.61500245 131.274998,3.27499585 131.705,4.105 C132.135002,4.93500415 132.35,5.9699938 132.35,7.21 C132.35,8.7100075 131.960004,9.98499475 131.18,11.035 C130.399996,12.0850052 129.260008,12.7499986 127.76,13.03 L133.16,22 L127.55,22 L123.11,13.51 L120.8,13.51 L120.8,22 L116.12,22 Z M120.8,9.55 L123.56,9.55 C123.980002,9.55 124.424998,9.53500015 124.895,9.505 C125.365002,9.47499985 125.789998,9.38500075 126.17,9.235 C126.550002,9.08499925 126.864999,8.8500016 127.115,8.53 C127.365001,8.2099984 127.49,7.7600029 127.49,7.18 C127.49,6.6399973 127.380001,6.2100016 127.16,5.89 C126.939999,5.5699984 126.660002,5.32500085 126.32,5.155 C125.979998,4.98499915 125.590002,4.8700003 125.15,4.81 C124.709998,4.7499997 124.280002,4.72 123.86,4.72 L120.8,4.72 Z M133.37,22 L142.55,0.76 L146.42,0.76 L155.66,22 L150.38,22 L148.55,17.5 L140.3,17.5 L138.53,22 Z M144.35,6.94 L141.77,13.54 L146.96,13.54 Z M159.14,4.9 L153.08,4.9 L153.08,0.76 L169.88,0.76 L169.88,4.9 L163.82,4.9 L163.82,22 L159.14,22 Z M171.11,11.38 C171.11,9.6799915 171.394997,8.1400069 171.965,6.76 C172.535003,5.3799931 173.329995,4.20500485 174.35,3.235 C175.370005,2.26499515 176.579993,1.5200026 177.98,1 C179.380007,0.4799974 180.909992,0.22 182.57,0.22 C184.230008,0.22 185.759993,0.4799974 187.16,1 C188.560007,1.5200026 189.769995,2.26499515 190.79,3.235 C191.810005,4.20500485 192.604997,5.3799931 193.175,6.76 C193.745003,8.1400069 194.03,9.6799915 194.03,11.38 C194.03,13.0800085 193.745003,14.6199931 193.175,16 C192.604997,17.3800069 191.810005,18.5549951 190.79,19.525 C189.769995,20.4950048 188.560007,21.2399974 187.16,21.76 C185.759993,22.2800026 184.230008,22.54 182.57,22.54 C180.909992,22.54 179.380007,22.2800026 177.98,21.76 C176.579993,21.2399974 175.370005,20.4950048 174.35,19.525 C173.329995,18.5549951 172.535003,17.3800069 171.965,16 C171.394997,14.6199931 171.11,13.0800085 171.11,11.38 Z M175.97,11.38 C175.97,12.380005 176.124998,13.2949958 176.435,14.125 C176.745002,14.9550041 177.189997,15.6749969 177.77,16.285 C178.350003,16.895003 179.044996,17.3699983 179.855,17.71 C180.665004,18.0500017 181.569995,18.22 182.57,18.22 C183.570005,18.22 184.474996,18.0500017 185.285,17.71 C186.095004,17.3699983 186.789997,16.895003 187.37,16.285 C187.950003,15.6749969 188.394998,14.9550041 188.705,14.125 C189.015002,13.2949958 189.17,12.380005 189.17,11.38 C189.17,10.3999951 189.015002,9.4900042 188.705,8.65 C188.394998,7.8099958 187.950003,7.08500305 187.37,6.475 C186.789997,5.86499695 186.095004,5.3900017 185.285,5.05 C184.474996,4.7099983 183.570005,4.54 182.57,4.54 C181.569995,4.54 180.665004,4.7099983 179.855,5.05 C179.044996,5.3900017 178.350003,5.86499695 177.77,6.475 C177.189997,7.08500305 176.745002,7.8099958 176.435,8.65 C176.124998,9.4900042 175.97,10.3999951 175.97,11.38 Z M197.21,0.76 L205.43,0.76 C206.510005,0.76 207.534995,0.86499895 208.505,1.075 C209.475005,1.28500105 210.324996,1.63499755 211.055,2.125 C211.785004,2.61500245 212.364998,3.27499585 212.795,4.105 C213.225002,4.93500415 213.44,5.9699938 213.44,7.21 C213.44,8.7100075 213.050004,9.98499475 212.27,11.035 C211.489996,12.0850052 210.350008,12.7499986 208.85,13.03 L214.25,22 L208.64,22 L204.2,13.51 L201.89,13.51 L201.89,22 L197.21,22 Z M201.89,9.55 L204.65,9.55 C205.070002,9.55 205.514998,9.53500015 205.985,9.505 C206.455002,9.47499985 206.879998,9.38500075 207.26,9.235 C207.640002,9.08499925 207.954999,8.8500016 208.205,8.53 C208.455001,8.2099984 208.58,7.7600029 208.58,7.18 C208.58,6.6399973 208.470001,6.2100016 208.25,5.89 C208.029999,5.5699984 207.750002,5.32500085 207.41,5.155 C207.069998,4.98499915 206.680002,4.8700003 206.24,4.81 C205.799998,4.7499997 205.370002,4.72 204.95,4.72 L201.89,4.72 Z M201.89,9.55" id="CONSPIRATOR" fill="#000000"></path>
    </g>
</svg>