<?xml version="1.0" encoding="UTF-8" standalone="no"?>
<svg width="216px" height="24px" viewBox="0 0 216 24" version="1.1" xmlns="http://www.w3.org/2000/svg" xmlns:xlink="http://www.w3.org/1999/xlink" xmlns:sketch="http://www.bohemiancoding.com/sketch/ns">
    <title>Conspirator</title>
    <description>Wordmark for Christopher Webb's digital studio.</description>
    <defs></defs>
    <g fill="#D8D8D8" fill-rule="evenodd">
        <path d="M16.05,7.28 C15.5899977,6.7199972 15.0250033,6.2900015 14.355,5.99 C13.6849966,5.6899985 12.9100044,5.54 12.03,5.54 C11.1499956,5.54 10.3350037,5.7099983 9.585,6.05 C8.83499625,6.3900017 8.18500275,6.86499695 7.635,7.475 C7.08499725,8.08500305 6.65500155,8.8099958 6.345,9.65 C6.03499845,10.4900042 5.88,11.3999951 5.88,12.38 C5.88,13.380005 6.03499845,14.2949958 6.345,15.125 C6.65500155,15.9550041 7.0799973,16.6749969 7.62,17.285 C8.1600027,17.895003 8.79499635,18.3699983 9.525,18.71 C10.2550036,19.0500017 11.0399958,19.22 11.88,19.22 C12.8400048,19.22 13.6899963,19.020002 14.43,18.62 C15.1700037,18.219998 15.7799976,17.6600036 16.26,16.94 L20.16,19.85 C19.2599955,21.1100063 18.1200069,22.039997 16.74,22.64 C15.3599931,23.240003 13.9400073,23.54 12.48,23.54 C10.8199917,23.54 9.290007,23.2800026 7.89,22.76 C6.489993,22.2399974 5.2800051,21.4950048 4.26,20.525 C3.2399949,19.5549951 2.44500285,18.3800069 1.875,17 C1.30499715,15.6199931 1.02,14.0800085 1.02,12.38 C1.02,10.6799915 1.30499715,9.1400069 1.875,7.76 C2.44500285,6.3799931 3.2399949,5.20500485 4.26,4.235 C5.2800051,3.26499515 6.489993,2.5200026 7.89,2 C9.290007,1.4799974 10.8199917,1.22 12.48,1.22 C13.080003,1.22 13.7049967,1.27499945 14.355,1.385 C15.0050032,1.49500055 15.6449968,1.6699988 16.275,1.91 C16.9050031,2.1500012 17.5099971,2.469998 18.09,2.87 C18.6700029,3.270002 19.1899977,3.7599971 19.65,4.34 Z M21.57,12.38 C21.57,10.6799915 21.8549972,9.1400069 22.425,7.76 C22.9950028,6.3799931 23.7899949,5.20500485 24.81,4.235 C25.8300051,3.26499515 27.039993,2.5200026 28.44,2 C29.840007,1.4799974 31.3699917,1.22 33.03,1.22 C34.6900083,1.22 36.219993,1.4799974 37.62,2 C39.020007,2.5200026 40.2299949,3.26499515 41.25,4.235 C42.2700051,5.20500485 43.0649972,6.3799931 43.635,7.76 C44.2050028,9.1400069 44.49,10.6799915 44.49,12.38 C44.49,14.0800085 44.2050028,15.6199931 43.635,17 C43.0649972,18.3800069 42.2700051,19.5549951 41.25,20.525 C40.2299949,21.4950048 39.020007,22.2399974 37.62,22.76 C36.219993,23.2800026 34.6900083,23.54 33.03,23.54 C31.3699917,23.54 29.840007,23.2800026 28.44,22.76 C27.039993,22.2399974 25.8300051,21.4950048 24.81,20.525 C23.7899949,19.5549951 22.9950028,18.3800069 22.425,17 C21.8549972,15.6199931 21.57,14.0800085 21.57,12.38 Z M26.43,12.38 C26.43,13.380005 26.5849985,14.2949958 26.895,15.125 C27.2050015,15.9550041 27.6499971,16.6749969 28.23,17.285 C28.8100029,17.895003 29.5049959,18.3699983 30.315,18.71 C31.1250041,19.0500017 32.029995,19.22 33.03,19.22 C34.030005,19.22 34.934996,19.0500017 35.745,18.71 C36.5550041,18.3699983 37.2499971,17.895003 37.83,17.285 C38.4100029,16.6749969 38.8549985,15.9550041 39.165,15.125 C39.4750016,14.2949958 39.63,13.380005 39.63,12.38 C39.63,11.3999951 39.4750016,10.4900042 39.165,9.65 C38.8549985,8.8099958 38.4100029,8.08500305 37.83,7.475 C37.2499971,6.86499695 36.5550041,6.3900017 35.745,6.05 C34.934996,5.7099983 34.030005,5.54 33.03,5.54 C32.029995,5.54 31.1250041,5.7099983 30.315,6.05 C29.5049959,6.3900017 28.8100029,6.86499695 28.23,7.475 C27.6499971,8.08500305 27.2050015,8.8099958 26.895,9.65 C26.5849985,10.4900042 26.43,11.3999951 26.43,12.38 Z M47.67,1.76 L54.03,1.76 L63.06,16.52 L63.12,16.52 L63.12,1.76 L67.8,1.76 L67.8,23 L61.68,23 L52.41,7.88 L52.35,7.88 L52.35,23 L47.67,23 Z M85.83,3.44 L82.62,6.95 C82.2399981,6.4699976 81.7250032,6.11500115 81.075,5.885 C80.4249967,5.65499885 79.8100029,5.54 79.23,5.54 C78.8899983,5.54 78.5400018,5.5799996 78.18,5.66 C77.8199982,5.7400004 77.4800016,5.86499915 77.16,6.035 C76.8399984,6.20500085 76.580001,6.4299986 76.38,6.71 C76.179999,6.9900014 76.08,7.329998 76.08,7.73 C76.08,8.3700032 76.3199976,8.8599983 76.8,9.2 C77.2800024,9.5400017 77.8849963,9.8299988 78.615,10.07 C79.3450036,10.3100012 80.1299958,10.5499988 80.97,10.79 C81.8100042,11.0300012 82.5949963,11.3699978 83.325,11.81 C84.0550037,12.2500022 84.6599976,12.8399963 85.14,13.58 C85.6200024,14.3200037 85.86,15.3099938 85.86,16.55 C85.86,17.7300059 85.6400022,18.7599956 85.2,19.64 C84.7599978,20.5200044 84.1650037,21.2499971 83.415,21.83 C82.6649963,22.4100029 81.7950049,22.8399986 80.805,23.12 C79.814995,23.4000014 78.7700055,23.54 77.67,23.54 C76.2899931,23.54 75.0100059,23.3300021 73.83,22.91 C72.6499941,22.4899979 71.5500051,21.8100047 70.53,20.87 L73.86,17.21 C74.3400024,17.8500032 74.9449963,18.3449982 75.675,18.695 C76.4050036,19.0450017 77.1599961,19.22 77.94,19.22 C78.3200019,19.22 78.7049981,19.1750004 79.095,19.085 C79.4850019,18.9949995 79.8349985,18.8600009 80.145,18.68 C80.4550016,18.4999991 80.704999,18.2700014 80.895,17.99 C81.0850009,17.7099986 81.18,17.3800019 81.18,17 C81.18,16.3599968 80.9350024,15.8550018 80.445,15.485 C79.9549975,15.1149981 79.3400037,14.8000013 78.6,14.54 C77.8599963,14.2799987 77.0600043,14.0200013 76.2,13.76 C75.3399957,13.4999987 74.5400037,13.1500022 73.8,12.71 C73.0599963,12.2699978 72.4450025,11.6900036 71.955,10.97 C71.4649975,10.2499964 71.22,9.3000059 71.22,8.12 C71.22,6.9799943 71.4449977,5.9800043 71.895,5.12 C72.3450022,4.2599957 72.9449962,3.5400029 73.695,2.96 C74.4450038,2.3799971 75.3099951,1.94500145 76.29,1.655 C77.2700049,1.36499855 78.2799948,1.22 79.32,1.22 C80.520006,1.22 81.6799944,1.3899983 82.8,1.73 C83.9200056,2.0700017 84.9299955,2.639996 85.83,3.44 Z M89.34,1.76 L97.23,1.76 C98.3300055,1.76 99.3699951,1.859999 100.35,2.06 C101.330005,2.260001 102.184996,2.60499755 102.915,3.095 C103.645004,3.58500245 104.224998,4.24499585 104.655,5.075 C105.085002,5.90500415 105.3,6.9499937 105.3,8.21 C105.3,9.4500062 105.100002,10.4899958 104.7,11.33 C104.299998,12.1700042 103.750003,12.8399975 103.05,13.34 C102.349997,13.8400025 101.520005,14.1949989 100.56,14.405 C99.5999952,14.615001 98.5600056,14.72 97.44,14.72 L94.02,14.72 L94.02,23 L89.34,23 Z M94.02,10.76 L97.14,10.76 C97.5600021,10.76 97.964998,10.7200004 98.355,10.64 C98.7450019,10.5599996 99.0949984,10.4250009 99.405,10.235 C99.7150015,10.044999 99.964999,9.78500165 100.155,9.455 C100.345001,9.12499835 100.44,8.7100025 100.44,8.21 C100.44,7.6699973 100.315001,7.23500165 100.065,6.905 C99.8149988,6.57499835 99.4950019,6.3200009 99.105,6.14 C98.714998,5.9599991 98.2800024,5.84500025 97.8,5.795 C97.3199976,5.74499975 96.8600022,5.72 96.42,5.72 L94.02,5.72 Z M108.18,1.76 L112.86,1.76 L112.86,23 L108.18,23 Z M117.12,1.76 L125.34,1.76 C126.420005,1.76 127.444995,1.86499895 128.415,2.075 C129.385005,2.28500105 130.234996,2.63499755 130.965,3.125 C131.695004,3.61500245 132.274998,4.27499585 132.705,5.105 C133.135002,5.93500415 133.35,6.9699938 133.35,8.21 C133.35,9.7100075 132.960004,10.9849947 132.18,12.035 C131.399996,13.0850052 130.260008,13.7499986 128.76,14.03 L134.16,23 L128.55,23 L124.11,14.51 L121.8,14.51 L121.8,23 L117.12,23 Z M121.8,10.55 L124.56,10.55 C124.980002,10.55 125.424998,10.5350001 125.895,10.505 C126.365002,10.4749998 126.789998,10.3850007 127.17,10.235 C127.550002,10.0849992 127.864999,9.8500016 128.115,9.53 C128.365001,9.2099984 128.49,8.7600029 128.49,8.18 C128.49,7.6399973 128.380001,7.2100016 128.16,6.89 C127.939999,6.5699984 127.660002,6.32500085 127.32,6.155 C126.979998,5.98499915 126.590002,5.8700003 126.15,5.81 C125.709998,5.7499997 125.280002,5.72 124.86,5.72 L121.8,5.72 Z M134.37,23 L143.55,1.76 L147.42,1.76 L156.66,23 L151.38,23 L149.55,18.5 L141.3,18.5 L139.53,23 Z M145.35,7.94 L142.77,14.54 L147.96,14.54 Z M160.14,5.9 L154.08,5.9 L154.08,1.76 L170.88,1.76 L170.88,5.9 L164.82,5.9 L164.82,23 L160.14,23 Z M172.11,12.38 C172.11,10.6799915 172.394997,9.1400069 172.965,7.76 C173.535003,6.3799931 174.329995,5.20500485 175.35,4.235 C176.370005,3.26499515 177.579993,2.5200026 178.98,2 C180.380007,1.4799974 181.909992,1.22 183.57,1.22 C185.230008,1.22 186.759993,1.4799974 188.16,2 C189.560007,2.5200026 190.769995,3.26499515 191.79,4.235 C192.810005,5.20500485 193.604997,6.3799931 194.175,7.76 C194.745003,9.1400069 195.03,10.6799915 195.03,12.38 C195.03,14.0800085 194.745003,15.6199931 194.175,17 C193.604997,18.3800069 192.810005,19.5549951 191.79,20.525 C190.769995,21.4950048 189.560007,22.2399974 188.16,22.76 C186.759993,23.2800026 185.230008,23.54 183.57,23.54 C181.909992,23.54 180.380007,23.2800026 178.98,22.76 C177.579993,22.2399974 176.370005,21.4950048 175.35,20.525 C174.329995,19.5549951 173.535003,18.3800069 172.965,17 C172.394997,15.6199931 172.11,14.0800085 172.11,12.38 Z M176.97,12.38 C176.97,13.380005 177.124998,14.2949958 177.435,15.125 C177.745002,15.9550041 178.189997,16.6749969 178.77,17.285 C179.350003,17.895003 180.044996,18.3699983 180.855,18.71 C181.665004,19.0500017 182.569995,19.22 183.57,19.22 C184.570005,19.22 185.474996,19.0500017 186.285,18.71 C187.095004,18.3699983 187.789997,17.895003 188.37,17.285 C188.950003,16.6749969 189.394998,15.9550041 189.705,15.125 C190.015002,14.2949958 190.17,13.380005 190.17,12.38 C190.17,11.3999951 190.015002,10.4900042 189.705,9.65 C189.394998,8.8099958 188.950003,8.08500305 188.37,7.475 C187.789997,6.86499695 187.095004,6.3900017 186.285,6.05 C185.474996,5.7099983 184.570005,5.54 183.57,5.54 C182.569995,5.54 181.665004,5.7099983 180.855,6.05 C180.044996,6.3900017 179.350003,6.86499695 178.77,7.475 C178.189997,8.08500305 177.745002,8.8099958 177.435,9.65 C177.124998,10.4900042 176.97,11.3999951 176.97,12.38 Z M198.21,1.76 L206.43,1.76 C207.510005,1.76 208.534995,1.86499895 209.505,2.075 C210.475005,2.28500105 211.324996,2.63499755 212.055,3.125 C212.785004,3.61500245 213.364998,4.27499585 213.795,5.105 C214.225002,5.93500415 214.44,6.9699938 214.44,8.21 C214.44,9.7100075 214.050004,10.9849947 213.27,12.035 C212.489996,13.0850052 211.350008,13.7499986 209.85,14.03 L215.25,23 L209.64,23 L205.2,14.51 L202.89,14.51 L202.89,23 L198.21,23 Z M202.89,10.55 L205.65,10.55 C206.070002,10.55 206.514998,10.5350001 206.985,10.505 C207.455002,10.4749998 207.879998,10.3850007 208.26,10.235 C208.640002,10.0849992 208.954999,9.8500016 209.205,9.53 C209.455001,9.2099984 209.58,8.7600029 209.58,8.18 C209.58,7.6399973 209.470001,7.2100016 209.25,6.89 C209.029999,6.5699984 208.750002,6.32500085 208.41,6.155 C208.069998,5.98499915 207.680002,5.8700003 207.24,5.81 C206.799998,5.7499997 206.370002,5.72 205.95,5.72 L202.89,5.72 Z M202.89,10.55" id="conspirator" fill="#FFFFFF"></path>
    </g>
</svg>